<svg width="46" height="42" viewBox="0 0 46 42" fill="none" xmlns="http://www.w3.org/2000/svg">
<path fill-rule="evenodd" clip-rule="evenodd" d="M8.45411 0.643575C5.33073 0.962926 2.66042 2.81646 1.47969 5.48459C1.04697 6.46251 0.850058 7.39748 0.847311 8.48701C0.840525 11.1811 2.22178 13.5749 4.67632 15.123C5.10489 15.3933 6.0823 15.83 6.64978 16.0048C7.05966 16.131 7.91437 16.2986 8.46758 16.3612L8.72341 16.3902V17.8976V19.4051L8.25213 18.9563C7.41331 18.1576 6.43487 17.6619 5.30929 17.4652C4.96997 17.406 4.38461 17.3871 2.6894 17.3811C0.267662 17.3724 0.28786 17.3698 0.163603 17.7026C0.0920765 17.8943 0.0901913 19.3417 0.160803 19.8499C0.422566 21.7333 1.7024 23.3174 3.53927 24.0315C4.44612 24.3841 4.56268 24.3982 6.74403 24.4199L8.72341 24.4396V25.9409V27.4422L8.8613 27.5952C9.03505 27.7881 9.29455 27.8409 9.52389 27.7302C9.84162 27.5767 9.85449 27.5053 9.85449 25.8969V24.4396L11.8339 24.4196C13.835 24.3994 13.8639 24.3971 14.548 24.2023C14.6173 24.1825 14.6511 24.2347 14.7037 24.4428C15.3559 27.0203 17.5449 29.2401 20.248 30.065C20.7742 30.2256 21.6996 30.4171 21.9547 30.4183C22.0389 30.4186 22.1623 30.4326 22.229 30.4493L22.3502 30.4796V31.9829V33.4861L21.9636 33.106C21.4421 32.5934 20.9746 32.2712 20.3304 31.9806C19.2411 31.4892 18.7504 31.4236 16.1693 31.4236C14.0283 31.4236 13.9513 31.4341 13.8113 31.7471C13.7159 31.9603 13.7022 33.2323 13.7883 33.8895C14.0493 35.8832 15.4703 37.5501 17.4712 38.2096C18.2863 38.4783 18.6701 38.5158 20.6068 38.5158H22.3502L22.3504 39.987C22.3505 41.3488 22.3582 41.4701 22.4539 41.6166C22.5963 41.8346 22.8686 41.9161 23.123 41.8168C23.4679 41.6822 23.4812 41.6137 23.4812 39.977V38.5158H25.2247C27.1112 38.5158 27.4975 38.4807 28.3018 38.2365C29.6409 37.8298 30.8235 36.8667 31.4792 35.6487C31.9409 34.791 32.0984 34.052 32.0987 32.7414C32.099 31.7789 32.0624 31.6374 31.7776 31.4999C31.5491 31.3895 27.9572 31.3894 27.1707 31.4997C25.8514 31.6846 24.7848 32.2045 23.8606 33.1132L23.4812 33.4861V31.9829V30.4796L23.6024 30.4493C23.6691 30.4326 23.8055 30.4186 23.9057 30.4183C24.0057 30.4179 24.3693 30.3589 24.7136 30.2872C26.3732 29.9414 27.6971 29.2592 28.8942 28.1327C29.9861 27.1054 30.7238 25.9201 31.078 24.6244C31.1409 24.3941 31.198 24.2003 31.2049 24.1939C31.2118 24.1874 31.3006 24.2055 31.4023 24.234C31.9851 24.3973 32.4754 24.4318 34.213 24.4319L35.9769 24.4319L35.9839 24.696C35.9877 24.8412 35.9859 25.4828 35.9797 26.1218C35.9672 27.4287 35.9977 27.5805 36.3024 27.7276C36.537 27.8409 36.7948 27.7898 36.9701 27.5952L37.108 27.4422V25.9409V24.4396L39.0874 24.4199C40.919 24.4017 41.0986 24.392 41.4927 24.2903C42.3774 24.0622 43.1108 23.7054 43.7692 23.1828C44.5847 22.5356 45.2454 21.5578 45.5422 20.5589C45.6706 20.1266 45.6867 19.9727 45.7111 18.9454C45.7344 17.9623 45.7263 17.7885 45.6505 17.6517C45.4932 17.3675 45.5133 17.3697 43.1135 17.3823C41.1926 17.3923 40.842 17.4062 40.4197 17.4883C39.27 17.7122 38.0865 18.3594 37.3827 19.1492L37.108 19.4575V17.9267V16.3957L37.2292 16.3654C37.2958 16.3488 37.4314 16.3348 37.5304 16.3344C37.6295 16.334 37.9494 16.2883 38.2414 16.2327C40.4945 15.8039 42.482 14.5113 43.749 12.6508C44.2518 11.9125 44.7127 10.7707 44.8942 9.81412C45.0654 8.91179 45.0168 7.61804 44.7764 6.67624C44.1801 4.34053 42.4372 2.34938 40.1136 1.34918C37.3817 0.173276 34.2637 0.418787 31.7635 2.00674C31.0792 2.44138 30.008 3.44415 29.572 4.0583C28.936 4.95413 28.5045 5.90676 28.2643 6.94544C28.1653 7.37369 28.1458 7.62197 28.1432 8.48701C28.1399 9.61609 28.2083 10.0421 28.5491 11.0161C29.0253 12.3772 29.9576 13.6482 31.1564 14.5708C32.4754 15.5859 33.9079 16.1475 35.7211 16.3602L35.9769 16.3902V17.8861V19.382L35.4222 18.8765C34.644 18.1672 33.9485 17.7932 32.9199 17.5308C32.5559 17.438 32.2976 17.4205 30.8871 17.3931L29.2713 17.3618L28.8942 17.0095C27.1356 15.3662 24.6587 14.5105 22.2601 14.7177C21.0342 14.8236 20.1954 15.0424 19.1455 15.5303C18.3664 15.8923 17.6941 16.3344 17.0507 16.9081L16.5716 17.3351L15.5426 17.3408C14.9765 17.3439 14.2461 17.3672 13.9193 17.3926C12.4632 17.5058 11.3836 17.9699 10.3527 18.9259L9.85449 19.3878V17.889V16.3902L10.1103 16.3602C11.167 16.2362 12.2359 15.9536 12.9906 15.5986C15.3733 14.4781 17.0017 12.5143 17.5677 10.0789C17.6676 9.64883 17.6867 9.40614 17.6887 8.53731C17.6904 7.86295 17.6658 7.38435 17.6178 7.15408C17.2756 5.51422 16.5464 4.19054 15.3507 3.03893C14.2732 2.00111 13.0545 1.30853 11.6319 0.925503C10.6632 0.664701 9.3698 0.549918 8.45411 0.643575ZM10.6525 1.77129C13.249 2.24279 15.3986 3.99895 16.2342 6.33138C16.4973 7.06555 16.6032 7.68248 16.6043 8.48701C16.607 10.3541 15.8676 12.0296 14.4615 13.3427C13.0626 14.6491 11.2694 15.3424 9.28895 15.3424C7.20697 15.3424 5.31656 14.5729 3.89981 13.1487C2.99388 12.238 2.39182 11.1431 2.08374 9.84575C1.93282 9.21047 1.9221 7.92311 2.06219 7.26625C2.34324 5.94855 2.9866 4.76767 3.9262 3.84478C5.20868 2.58518 6.67035 1.90187 8.56183 1.67778C8.93115 1.63402 10.212 1.69131 10.6525 1.77129ZM37.4042 1.70052C41.9154 2.20256 44.8532 6.34939 43.5935 10.4369C43.4258 10.981 42.975 11.8687 42.6096 12.3744C42.239 12.8873 41.5009 13.6024 40.9366 13.9955C38.4457 15.7302 35.0125 15.8079 32.4619 14.1872C30.9046 13.1978 29.8693 11.7959 29.4038 10.0463C29.2372 9.42022 29.1968 8.08271 29.3231 7.37701C29.5795 5.94513 30.2747 4.69731 31.3949 3.65827C33.01 2.16015 35.1805 1.45304 37.4042 1.70052ZM8.45411 2.67904C6.3153 2.95795 4.53149 4.17379 3.60649 5.98321C3.11345 6.94765 2.90899 7.99846 3.01332 9.03156C3.26431 11.5176 5.11976 13.5501 7.73809 14.2073C8.21518 14.3271 8.36082 14.34 9.26202 14.3425C10.1171 14.3449 10.3247 14.3296 10.7255 14.2348C13.0517 13.6844 14.7904 12.0852 15.3861 9.94826C15.5723 9.28024 15.6145 8.25126 15.4851 7.52911C15.0204 4.93346 12.7656 2.95282 9.93528 2.65399C9.335 2.59062 9.10227 2.59454 8.45411 2.67904ZM35.701 2.67512C34.8092 2.79443 33.7649 3.167 33.0465 3.62211C31.607 4.53403 30.6432 5.93522 30.3402 7.55648C30.2256 8.16937 30.2682 9.30388 30.427 9.87025C31.0442 12.0716 32.7763 13.6905 35.0882 14.2269C35.7331 14.3766 36.8842 14.4097 37.5929 14.299C40.1502 13.8997 42.1833 12.0768 42.7234 9.69923C42.8687 9.05927 42.8762 7.98986 42.7396 7.38043C42.4635 6.14875 41.8393 5.09668 40.8725 4.23309C39.52 3.02495 37.5413 2.42885 35.701 2.67512ZM10.5177 3.80675C12.4535 4.26911 13.9389 5.70143 14.3542 7.50618C14.4653 7.9893 14.4797 8.92608 14.3831 9.3924C14.1782 10.3814 13.6527 11.2782 12.8631 11.9861C12.2834 12.5058 11.7022 12.8426 10.9908 13.0712C10.5295 13.2194 10.5548 13.2556 10.5539 12.4481C10.5534 11.9821 10.5298 11.6873 10.4865 11.6056C10.437 11.5119 10.0733 11.3159 9.06004 10.8369L7.70006 10.1939V9.72111C7.70006 9.30091 7.71143 9.24493 7.80234 9.21797C7.99699 9.16027 8.34526 8.88906 8.47926 8.69088C8.55327 8.58138 8.65507 8.35322 8.70548 8.18386C8.78514 7.91637 8.78821 7.83534 8.72885 7.56709C8.606 7.01163 8.31774 6.67443 7.76162 6.4357C7.51263 6.32882 7.41665 6.31499 7.06143 6.3348C6.61186 6.3599 6.32979 6.46568 6.00711 6.73031C5.51628 7.13275 5.36617 7.92029 5.6701 8.49828C5.82372 8.79042 6.13945 9.0885 6.41656 9.20308L6.56899 9.26605L6.5692 9.9454C6.56936 10.5206 6.58477 10.6479 6.66981 10.7756C6.74883 10.8943 7.05309 11.0584 8.09691 11.5449L9.4236 12.1633V12.7647C9.4236 13.4605 9.4975 13.4027 8.72201 13.3137C6.49837 13.0586 4.75555 11.605 4.2157 9.55522C4.08709 9.06677 4.08876 7.98196 4.21899 7.45965C4.56774 6.06087 5.59427 4.82461 6.93147 4.19305C7.2549 4.04024 7.65999 3.88894 7.87511 3.84056L8.02323 3.80726L8.02403 4.55013C8.02452 5.03834 8.04768 5.33611 8.09157 5.41875C8.14145 5.51276 8.49801 5.7035 9.50461 6.1746L10.8509 6.80465L10.8664 7.2666L10.8818 7.7286L10.6754 7.82694C10.4189 7.94911 10.0503 8.317 9.9293 8.57167C9.87043 8.69556 9.83618 8.90641 9.83278 9.16606C9.8282 9.51891 9.84743 9.60512 9.98914 9.86643C10.4814 10.7741 11.7817 10.9732 12.5696 10.2616C13.0661 9.81311 13.2046 9.09991 12.9065 8.52655C12.7496 8.2249 12.3534 7.85264 12.1346 7.80138C12.0106 7.77231 12.0089 7.76255 12.0087 7.08577C12.0085 6.49159 11.9943 6.37776 11.9023 6.23692C11.8145 6.10247 11.5624 5.96505 10.4482 5.4445L9.10044 4.81476V4.22912V3.64343L9.60608 3.67663C9.88422 3.69489 10.2944 3.75344 10.5177 3.80675ZM37.3773 3.72859C39.639 4.07415 41.3864 5.75369 41.6892 7.87306C41.9457 9.66825 41.0885 11.4539 39.47 12.4961C39.035 12.7762 38.293 13.1046 37.992 13.1502L37.8082 13.178V12.4198C37.8082 11.7046 37.8013 11.6543 37.687 11.5345C37.6204 11.4646 36.978 11.1353 36.2597 10.8025L34.9536 10.1976V9.72886V9.26012L35.1358 9.17898C36.1287 8.7368 36.3277 7.49395 35.5243 6.75324C35.1614 6.41865 34.8191 6.30266 34.2898 6.33495C33.6504 6.37394 33.1874 6.67402 32.9161 7.2252C32.5629 7.94298 32.923 8.87492 33.6778 9.19609L33.8225 9.25765V9.90511C33.8225 10.8879 33.7201 10.7785 35.3541 11.5408L36.731 12.1831V12.7746V13.3661L36.5559 13.3658C36.2454 13.3653 35.3682 13.2236 34.9805 13.1114C33.0226 12.5449 31.5963 10.8826 31.4048 8.94419C31.3293 8.18049 31.4398 7.44476 31.7339 6.75169C32.3375 5.32962 33.5578 4.28998 35.1555 3.83678L35.2767 3.80238V4.55642C35.2767 5.27937 35.2821 5.31629 35.4061 5.4526C35.488 5.54269 36.0111 5.81571 36.8334 6.19754L38.1314 6.80032V7.28612C38.1314 7.76793 38.1302 7.77221 37.9906 7.8049C37.7506 7.86119 37.2987 8.32968 37.1857 8.63952C36.9667 9.2398 37.1207 9.85541 37.593 10.268C37.8978 10.5343 38.152 10.6429 38.5639 10.6831C39.6953 10.7936 40.5891 9.76673 40.2657 8.72805C40.164 8.40126 39.7948 7.98412 39.4705 7.8296L39.2624 7.73046V7.03115C39.2624 6.36594 39.2561 6.32494 39.1331 6.18969C39.0512 6.0996 38.528 5.82658 37.7058 5.44476L36.4078 4.84197V4.25014V3.65827L36.6636 3.65847C36.8043 3.65857 37.1255 3.69011 37.3773 3.72859ZM7.34781 7.40799C7.91933 7.66125 7.5708 8.47006 6.96998 8.28491C6.54459 8.15378 6.5099 7.56628 6.91779 7.40035C7.12704 7.31519 7.13889 7.31539 7.34781 7.40799ZM34.6009 7.4013C34.8145 7.4847 34.8997 7.6108 34.8997 7.84379C34.8997 8.06274 34.7816 8.21429 34.5572 8.28345C34.2203 8.38732 33.9057 8.16932 33.9057 7.83192C33.9057 7.61658 34.0754 7.4011 34.2735 7.36478C34.3365 7.35327 34.3949 7.34074 34.4032 7.33697C34.4116 7.3332 34.5006 7.36217 34.6009 7.4013ZM11.6779 8.75989C11.9813 8.90641 12.0404 9.27013 11.7976 9.49688C11.5913 9.68957 11.3292 9.69586 11.0974 9.51368C10.8669 9.33255 10.8634 9.04604 11.0891 8.83524C11.2642 8.67171 11.447 8.64833 11.6779 8.75989ZM39.0511 8.83524C39.2575 9.02794 39.2642 9.27264 39.0691 9.48913C38.8752 9.70441 38.5684 9.70768 38.3426 9.49688C38.1647 9.33069 38.1426 9.16254 38.2688 8.93463C38.424 8.65431 38.8055 8.60582 39.0511 8.83524ZM24.013 15.8085C25.8459 16.0595 27.4821 16.9471 28.6701 18.3349C29.7269 19.5694 30.2373 20.9611 30.233 22.596C30.2306 23.4989 30.1271 24.0833 29.8303 24.8689C28.9509 27.1968 26.7186 28.9412 24.1142 29.3357C23.4712 29.4331 22.3544 29.4322 21.7038 29.3337C19.2869 28.9679 17.155 27.3999 16.1743 25.2666C15.7024 24.2401 15.497 23.0291 15.6144 21.9651C15.8046 20.2405 16.5601 18.7946 17.8866 17.6164C19.5383 16.1494 21.7456 15.4981 24.013 15.8085ZM22.1347 16.7386C19.4386 17.0498 17.1902 19.0455 16.7256 21.5397C16.2054 24.3329 17.8827 27.0893 20.7031 28.0759C21.5403 28.3687 21.9336 28.4308 22.9426 28.4299C23.6044 28.4293 23.9323 28.4064 24.2266 28.3402C26.6722 27.7908 28.375 26.2463 29.0399 23.9744C29.1496 23.5993 29.1633 23.4413 29.1616 22.5709C29.1597 21.6673 29.1482 21.551 29.0153 21.0952C28.8531 20.5385 28.4558 19.7245 28.112 19.2446C27.8168 18.8325 26.8943 17.9791 26.4436 17.7012C25.7625 17.2813 24.9578 16.9678 24.1727 16.8165C23.6502 16.7159 22.6595 16.678 22.1347 16.7386ZM24.2084 17.8916C25.9204 18.2991 27.3227 19.5475 27.8617 21.1441C28.6797 23.5668 27.3219 26.1752 24.7622 27.0987C24.5336 27.1812 24.3094 27.2487 24.2639 27.2487C24.1936 27.2487 24.1814 27.1391 24.1814 26.501C24.1814 25.8394 24.1695 25.7391 24.0778 25.6303C24.0176 25.5588 23.4197 25.2489 22.6505 24.8906L21.3268 24.274V23.8121V23.3503L21.5772 23.2263C22.5297 22.7543 22.668 21.4524 21.8381 20.7702C21.5352 20.5213 21.1984 20.408 20.7613 20.408C20.1118 20.408 19.5996 20.7023 19.3061 21.2441C19.0935 21.6364 19.0839 22.1615 19.2822 22.5457C19.43 22.832 19.7875 23.1796 20.031 23.2738L20.1957 23.3376V23.9869C20.1957 24.9698 20.0973 24.8633 21.6961 25.6104L23.0422 26.2392L23.077 26.5051C23.0961 26.6512 23.1041 26.9067 23.0946 27.0727L23.0773 27.3744L22.5387 27.3689C20.5722 27.3485 18.6371 25.9467 17.9985 24.0798C17.7006 23.209 17.6638 22.2369 17.8972 21.4036C18.2944 19.9856 19.2413 18.8961 20.6537 18.2324C20.9503 18.093 21.5273 17.893 21.6329 17.893C21.6423 17.893 21.65 18.2308 21.65 18.6436C21.65 19.3631 21.6554 19.4002 21.7793 19.5364C21.8612 19.6265 22.3844 19.8996 23.2066 20.2814L24.5046 20.8842V21.3515C24.5046 21.8033 24.5001 21.8204 24.3704 21.8665C24.1506 21.9445 23.7509 22.3225 23.6009 22.594C23.4875 22.7992 23.4605 22.9194 23.4589 23.2247C23.4565 23.7047 23.6062 24.0373 23.9662 24.3518C24.3279 24.6678 24.553 24.7494 25.0701 24.7519C25.5895 24.7546 25.9149 24.622 26.2685 24.2638C26.5901 23.9379 26.6758 23.726 26.6785 23.2499C26.6805 22.9115 26.6585 22.8072 26.5399 22.5936C26.3739 22.2947 26.1187 22.0467 25.8376 21.9115L25.6357 21.8143V21.115C25.6357 20.4498 25.6294 20.4088 25.5064 20.2735C25.4244 20.1834 24.9013 19.9104 24.079 19.5286L22.7811 18.9258V18.3264V17.7269L23.2793 17.758C23.5533 17.7751 23.9714 17.8352 24.2084 17.8916ZM5.46484 18.5658C6.72798 18.927 7.69893 19.6811 8.25639 20.734C8.58359 21.352 8.67817 21.7437 8.70909 22.6086L8.7365 23.3756L8.50108 23.3778C6.55794 23.3954 5.09751 23.3629 4.73805 23.2941C3.45487 23.0484 2.29428 22.2021 1.69966 21.0784C1.37143 20.4581 1.28148 20.0786 1.25089 19.1842L1.22369 18.388L3.10187 18.4076C4.97035 18.4271 4.98263 18.4279 5.46484 18.5658ZM15.4955 18.811C14.83 19.9639 14.4865 21.2253 14.4865 22.5162V23.116L14.2307 23.1949C13.6437 23.3758 13.4061 23.3889 10.8644 23.3794L9.85449 23.3756V22.7062C9.85449 21.8866 9.97013 21.3937 10.3187 20.7274C10.84 19.7309 11.7414 18.9981 12.8865 18.6399C13.4958 18.4492 13.8229 18.4103 14.8819 18.4024L15.7351 18.396L15.4955 18.811ZM32.6419 18.5409C33.1643 18.6747 33.3875 18.7626 33.8362 19.0111C34.6129 19.4412 35.2899 20.1781 35.6495 20.9847C35.8986 21.5434 35.9749 21.9463 35.976 22.708L35.9769 23.3733L35.0478 23.3871C34.5369 23.3946 33.6582 23.3869 33.0954 23.3699C32.2544 23.3445 32.0072 23.3195 31.7085 23.2295L31.3449 23.1201L31.344 22.4557C31.3422 21.1898 31.064 20.1381 30.4182 18.956L30.1059 18.3842L31.1697 18.4103C32.0167 18.431 32.3168 18.4576 32.6419 18.5409ZM44.5946 19.052C44.5946 19.4439 44.5616 19.8574 44.5126 20.0792C44.1593 21.6765 42.7849 22.9676 41.0903 23.294C40.73 23.3634 39.2463 23.3976 37.4104 23.3789L37.0933 23.3756L37.1232 22.6337C37.1571 21.7909 37.2398 21.4313 37.5384 20.8291C38.0762 19.7446 39.062 18.9409 40.2772 18.5962C40.8793 18.4254 41.1018 18.409 42.9115 18.4023L44.5946 18.396V19.052ZM21.0047 21.4899C21.2748 21.6204 21.3491 21.885 21.1942 22.1648C21.102 22.3313 21.0159 22.3697 20.7347 22.3697C20.5706 22.3697 20.5001 22.3381 20.389 22.2149C20.1622 21.9631 20.2148 21.6404 20.5068 21.4924C20.6957 21.3966 20.8103 21.3961 21.0047 21.4899ZM25.4244 22.9191C25.5409 23.0279 25.5818 23.1138 25.5818 23.2499C25.5818 23.5055 25.3438 23.7277 25.0701 23.7277C24.9244 23.7277 24.8324 23.6896 24.7159 23.5807C24.5993 23.4719 24.5585 23.386 24.5585 23.2499C24.5585 23.1138 24.5993 23.0279 24.7159 22.9191C24.8324 22.8102 24.9244 22.772 25.0701 22.772C25.2158 22.772 25.3078 22.8102 25.4244 22.9191ZM18.5574 32.5339C20.0556 32.7285 21.4271 33.7292 22.0181 35.0592C22.2547 35.5915 22.3502 36.1013 22.3502 36.8324V37.4672L20.3977 37.4481C18.5317 37.4298 18.4286 37.4238 18.0682 37.3127C16.8468 36.9361 15.8772 36.1744 15.3293 35.1611C15.0316 34.6108 14.9057 34.0776 14.8769 33.2469L14.8504 32.4798H16.4958C17.4008 32.4798 18.3285 32.5042 18.5574 32.5339ZM30.9667 33.1212C30.9644 34.4165 30.5914 35.3254 29.7052 36.1953C29.1938 36.6973 28.5413 37.0728 27.7632 37.3127C27.4027 37.4238 27.3 37.4298 25.4264 37.4481L23.4666 37.4673L23.4959 36.6963C23.5269 35.883 23.6121 35.4914 23.8814 34.9225C24.47 33.6797 25.8092 32.7366 27.2784 32.5302C27.4265 32.5094 28.3173 32.4895 29.2578 32.4861L30.9679 32.4798L30.9667 33.1212Z" fill="#F5D64E"/>
</svg>
