<svg width="48" height="50" viewBox="0 0 48 50" fill="none" xmlns="http://www.w3.org/2000/svg">
<path fill-rule="evenodd" clip-rule="evenodd" d="M22.8165 0.548029C21.5618 0.867017 20.5511 1.64339 19.9799 2.72695C19.6485 3.35567 19.6336 3.43217 19.6336 4.50677C19.6336 5.55076 19.6551 5.67064 19.9396 6.21437C20.3677 7.03216 21.2347 7.81097 22.1121 8.16572L22.8165 8.4506V11.5064V14.5622L23.1215 14.8471C23.5511 15.2483 24.1691 15.2483 24.5986 14.8471L24.9037 14.5622V11.5064V8.4506L25.5982 8.16806C27.3638 7.44968 28.4818 5.56343 28.1463 3.8687C27.6731 1.47848 25.2051 -0.0592461 22.8165 0.548029ZM24.8538 2.25466C26.4691 2.94 26.8737 4.89554 25.6389 6.04879C25.0806 6.5702 24.7309 6.69777 23.8601 6.69777C22.9941 6.69777 22.6391 6.56971 22.094 6.06068C21.549 5.55164 21.4118 5.22008 21.4118 4.41136C21.4118 3.59815 21.5484 3.27156 22.1068 2.75014C22.8134 2.09024 23.9731 1.88099 24.8538 2.25466ZM4.82301 9.98452C3.96915 10.0905 3.02137 10.5297 2.40795 11.1036C0.698872 12.7027 0.707742 15.2786 2.42778 16.8522C3.47502 17.8103 4.8992 18.1998 6.32598 17.9185C6.75688 17.8335 7.31802 17.6411 7.57829 17.4892C7.83762 17.3378 8.146 17.157 8.2635 17.0876C8.45698 16.9734 8.73343 17.1105 11.1743 18.5319C13.9552 20.1513 14.249 20.2709 14.7866 20.0021C15.0261 19.8824 15.3027 19.4138 15.3027 19.1279C15.3027 18.6199 15.0116 18.3956 12.2976 16.8124L9.58499 15.23L9.68821 14.8155C9.74498 14.5876 9.76804 14.0635 9.73965 13.6511C9.62893 12.0474 8.57178 10.7478 6.91279 10.1763C6.24052 9.94466 5.60977 9.88677 4.82301 9.98452ZM41.4146 10.9251C39.5373 11.5493 38.4125 13.1278 38.4892 15.0302L38.5224 15.8544L35.772 17.324C34.2592 18.1322 32.9561 18.8771 32.876 18.9793C32.6256 19.2992 32.6938 19.8661 33.0244 20.2117C33.5629 20.7745 33.7752 20.7104 36.8924 19.043L39.6452 17.5704L40.0183 17.8764C40.8743 18.5783 42.3662 18.9545 43.5074 18.7562C45.7373 18.369 47.2689 16.5476 47.1017 14.4822C46.9876 13.0742 46.0024 11.7286 44.6351 11.1134C44.0404 10.8458 43.8172 10.8005 42.9577 10.7732C42.1874 10.7487 41.8432 10.7826 41.4146 10.9251ZM6.64177 11.9402C7.9928 12.6967 8.30566 14.3218 7.30956 15.4086C6.76085 16.0073 6.2139 16.2456 5.38864 16.2456C2.76903 16.2456 1.92028 12.9653 4.25823 11.8771C5.07222 11.4984 5.89154 11.52 6.64177 11.9402ZM43.847 12.5854C44.33 12.7903 44.8738 13.267 45.1088 13.6914C45.3346 14.099 45.4043 14.9049 45.2577 15.4115C45.0821 16.0185 44.3381 16.7335 43.6646 16.9423C41.2667 17.6861 39.3696 15.1417 40.9132 13.2519C41.5349 12.4906 42.8953 12.1817 43.847 12.5854ZM22.0068 16.7471C20.6727 17.0201 19.1819 17.713 18.087 18.5692C16.8624 19.5267 15.7319 21.2278 15.2871 22.7826C14.9852 23.8377 14.9628 25.7912 15.2413 26.7703C16.2421 30.2876 19.2095 32.7002 22.984 33.0658C25.7007 33.3288 28.4132 32.3804 30.283 30.5137C31.3856 29.4128 31.9931 28.4083 32.4439 26.94C32.6314 26.329 32.6726 25.9464 32.6711 24.8293C32.6689 23.2415 32.5335 22.6621 31.8515 21.3207C30.6343 18.9265 28.3981 17.283 25.6133 16.736C24.7238 16.5612 22.8876 16.5669 22.0068 16.7471ZM25.7228 18.2532C28.1787 18.8888 30.0315 20.5428 30.8512 22.8314C31.1638 23.7044 31.2416 25.263 31.0213 26.2425C30.9286 26.6544 30.6449 27.3743 30.3713 27.892C29.5533 29.4392 28.021 30.703 26.2756 31.2699C23.537 32.1593 20.7451 31.5467 18.6771 29.6026C17.9784 28.9458 17.74 28.6371 17.3522 27.8875C15.5525 24.4083 16.9797 20.4565 20.6632 18.72C22.0875 18.0486 24.1844 17.855 25.7228 18.2532ZM23.4426 20.3443C23.4426 20.8464 23.4254 20.8823 23.1557 20.9429C22.4126 21.1096 21.7585 21.5898 21.4196 22.2174C21.1826 22.6562 21.1982 23.6199 21.4497 24.0779C21.7429 24.6117 22.0072 24.7967 23.4122 25.4513C24.1128 25.7778 24.735 26.1303 24.7949 26.2348C25.152 26.858 24.7064 27.5094 23.9228 27.5094C23.3455 27.5094 22.9371 27.2175 22.8304 26.7282L22.7563 26.3887L21.8334 26.3603L20.9107 26.3319L20.9589 26.7989C21.0595 27.7712 21.6331 28.3755 22.7917 28.7294L23.3281 28.8932L23.3593 29.3952L23.3905 29.8972L23.9384 29.9267L24.4862 29.9562V29.4228C24.4862 28.9 24.493 28.888 24.8254 28.821C26.6023 28.4628 27.3634 26.6394 26.2964 25.2967C26.1264 25.0828 25.6459 24.796 24.7716 24.3866C24.0693 24.0579 23.4127 23.7202 23.3122 23.6362C23.0496 23.4165 23.0654 22.6964 23.3383 22.4415C23.8167 21.9948 24.6961 22.3285 24.8795 23.0263L24.9691 23.3674H25.8496H26.7299L26.7043 22.9803C26.6426 22.0502 26.0498 21.3192 25.1246 21.0321L24.5906 20.8665V20.3383V19.8101H24.0166H23.4426V20.3443ZM13.5286 28.8728C13.3851 28.9166 12.0702 29.5624 10.6066 30.3081L7.94542 31.6639L7.53185 31.3382C4.81581 29.1994 0.650137 30.8212 0.408651 34.1117C0.277994 35.8928 1.24926 37.384 3.04057 38.1524C3.48451 38.3429 3.73383 38.3763 4.7125 38.3763C5.79647 38.3763 5.90177 38.3582 6.54378 38.0631C8.19014 37.3062 9.09587 35.874 9.02042 34.147L8.989 33.4262L11.6501 32.0846C13.1138 31.3468 14.4405 30.6267 14.5983 30.4845C15.1309 30.0049 14.9243 29.1963 14.1966 28.9123C14.0051 28.8375 13.8351 28.7802 13.8189 28.7848C13.8027 28.7894 13.6721 28.8291 13.5286 28.8728ZM33.0558 29.4227C32.5773 29.7357 32.4613 30.3375 32.7827 30.8401C32.8401 30.9298 34.1227 31.6898 35.633 32.529C38.3553 34.0417 38.3782 34.0572 38.3124 34.3373C38.1917 34.8506 38.2357 35.8556 38.4022 36.3891C38.9864 38.2605 41.0806 39.5144 43.1251 39.2172C44.0439 39.0835 44.8351 38.724 45.4976 38.139C48.3369 35.631 46.4422 31.1901 42.5353 31.1961C41.4335 31.1978 40.6374 31.4738 39.5714 32.2236C39.4936 32.2783 38.583 31.8256 37.0038 30.947C35.658 30.1982 34.4065 29.5131 34.2229 29.4246C33.7988 29.2204 33.3663 29.2196 33.0558 29.4227ZM5.59735 32.2929C6.22799 32.5594 6.61756 32.9176 6.91404 33.5033C7.34567 34.356 7.19988 35.2128 6.49619 35.9595C5.97127 36.5164 5.40742 36.7635 4.65813 36.7651C4.01288 36.7664 3.18991 36.4585 2.81224 36.0745C2.42611 35.6818 2.15833 35.0084 2.15582 34.4239C2.14872 32.7582 3.99451 31.6153 5.59735 32.2929ZM43.2091 32.9766C44.1639 33.2242 44.8613 33.9308 45.0591 34.8511C45.3568 36.235 44.1507 37.5778 42.6131 37.5746C40.7102 37.5707 39.5076 35.6868 40.4146 34.1306C40.7238 33.5999 41.1972 33.2388 41.8831 33.0103C42.3711 32.8477 42.6817 32.8398 43.2091 32.9766ZM22.8964 34.7133L22.5556 34.9976L22.4883 37.3691C22.4512 38.6735 22.4161 40.0527 22.41 40.434L22.3991 41.1274L21.9034 41.3028C20.827 41.6835 19.8715 42.5098 19.3955 43.4715C19.151 43.9656 19.1194 44.1507 19.1169 45.101C19.1145 46.0066 19.1501 46.2465 19.3464 46.6457C20.1705 48.3216 21.8115 49.2522 23.7069 49.1182C25.6873 48.9784 27.2648 47.6276 27.6384 45.7517C27.9763 44.0546 26.8657 42.1059 25.1825 41.4424L24.5742 41.2026L24.6085 38.1009L24.6428 34.9993L24.3019 34.7142C23.8417 34.3292 23.3574 34.3289 22.8964 34.7133ZM24.1977 42.9631C25.176 43.2745 25.8365 44.1706 25.8406 45.1921C25.8504 47.6544 22.2532 48.3835 21.087 46.1556C20.8249 45.655 20.8234 44.6404 21.0839 44.1752C21.7123 43.0531 22.9574 42.5685 24.1977 42.9631Z" fill="#F5D64E"/>
</svg>
