<svg width="44" height="38" viewBox="0 0 44 38" fill="none" xmlns="http://www.w3.org/2000/svg">
<path fill-rule="evenodd" clip-rule="evenodd" d="M21.2521 0.389314C20.9294 0.690766 20.8825 0.964765 20.8825 2.54747C20.8825 4.13018 20.9294 4.40418 21.2521 4.70563C21.6977 5.12189 21.875 5.13502 22.2555 4.7797C22.6782 4.38467 22.6782 0.710275 22.2555 0.315246C21.875 -0.0400728 21.6977 -0.0269509 21.2521 0.389314ZM14.6425 1.97116C14.2455 2.34201 14.3856 2.78124 15.4291 4.43733C16.4898 6.12086 16.7931 6.3757 17.3842 6.08012C17.9536 5.79558 17.8024 5.24603 16.6735 3.49706C15.6084 1.84667 15.1469 1.49999 14.6425 1.97116ZM27.9743 1.90261C27.7403 2.04488 26.1052 4.577 25.8557 5.18353C25.7333 5.48084 25.7827 5.65746 26.0608 5.9173C26.7188 6.53195 26.8761 6.41178 28.1839 4.29541C29.0995 2.8137 29.2115 2.53659 29.0378 2.18041C28.8404 1.77589 28.3805 1.65572 27.9743 1.90261ZM9.49873 4.85204C8.9025 5.1124 7.90908 6.12708 4.80259 9.64884C2.63573 12.1053 0.694173 14.4648 0.488097 14.8921C-0.194637 16.3074 -0.0556503 17.3975 1.73768 24.6907L3.36171 31.2952L2.7762 31.9181C2.02545 32.7168 1.8458 33.1767 1.8458 34.2997C1.8458 35.4772 2.42208 36.5079 3.48129 37.2251L4.28416 37.7686L10.2266 37.8188C16.9434 37.8755 17.2143 37.8364 18.3658 36.646C19.8837 35.0764 19.6325 32.6149 17.8333 31.4302L17.0707 30.9281L17.2243 29.7268C17.5196 27.4163 17.3625 26.9944 13.66 20.158L10.2938 13.9425L12.0182 11.2747C13.4828 9.00899 13.7546 8.47153 13.8225 7.70823C14.018 5.5038 11.6255 3.92317 9.49873 4.85204ZM31.5098 4.85774C30.6215 5.23861 30.2365 5.61965 29.8373 6.51209C29.3451 7.61241 29.5896 8.30889 31.5068 11.2664L33.2414 13.9425L30.0364 19.8127C28.2737 23.0413 26.6878 26.1465 26.5122 26.7131C26.2671 27.5037 26.2177 28.1028 26.3 29.2893L26.4072 30.8354L25.6089 31.4918C24.5932 32.3271 24.2093 33.0894 24.2093 34.2713C24.2093 35.479 24.775 36.5008 25.8448 37.2251L26.6476 37.7686L32.4978 37.8223C38.9025 37.8812 39.3257 37.8342 40.4134 36.9421C42.0498 35.6001 42.1945 33.4502 40.7562 31.8539L40.1739 31.2078L41.8068 24.5607C43.6269 17.1506 43.7291 16.2431 42.9157 14.7195C42.5196 13.9778 36.3928 6.88416 34.973 5.52366C33.9398 4.53367 32.7836 4.31129 31.5098 4.85774ZM11.7728 6.47532C12.635 7.35533 12.5683 7.56441 10.299 11.0938L9.13334 12.9066L8.07837 12.9349C6.24309 12.9841 5.08352 14.0204 5.11956 15.5793C5.12954 16.0085 5.66644 17.9912 6.31295 19.9854L7.48824 23.6111H8.13234C8.6565 23.6111 8.78754 23.54 8.83485 23.229C8.86683 23.0189 8.38851 21.259 7.77212 19.3184C7.15556 17.3778 6.65118 15.6325 6.65118 15.44C6.65118 15.0373 7.46532 14.3742 7.95953 14.3742C8.14343 14.3742 8.49792 14.5491 8.74743 14.7626C8.99676 14.9762 10.626 17.7927 12.3679 21.0213C15.7568 27.3026 15.8903 27.6558 15.6254 29.6368L15.496 30.6035H10.1495C7.20897 30.6035 4.80296 30.5755 4.80296 30.5412C4.80296 30.507 4.09601 27.5826 3.23197 24.0427C2.36792 20.5028 1.66283 17.287 1.66504 16.8968C1.66726 16.5064 1.83046 15.855 2.02767 15.4491C2.35998 14.7649 8.7308 7.34842 9.73605 6.47532C10.0107 6.23688 10.4167 6.08685 10.7877 6.08685C11.1786 6.08685 11.5266 6.22411 11.7728 6.47532ZM33.5837 6.34876C34.1573 6.72411 40.8407 14.326 41.3225 15.1511C42.0943 16.4728 42.0757 16.6409 40.3666 23.7261C39.4885 27.3663 38.7326 30.4029 38.6868 30.474C38.5605 30.6707 28.1325 30.6339 28.0018 30.4366C27.7902 30.1165 27.8806 27.405 28.1233 26.7927C28.2578 26.4535 29.7706 23.5924 31.485 20.435C33.8426 16.0928 34.7114 14.6473 35.0502 14.5031C35.6551 14.2457 36.4353 14.5168 36.7273 15.086C36.9284 15.4778 36.8127 15.9783 35.7585 19.282C34.829 22.1943 34.6039 23.1073 34.7517 23.3652C34.9659 23.7394 35.7141 23.8096 35.9882 23.4816C36.0873 23.363 36.6907 21.6156 37.3291 19.5986C38.2443 16.7069 38.4679 15.7792 38.3863 15.211C38.1855 13.8131 36.9899 12.9092 35.3877 12.9443L34.4368 12.9652L32.8348 10.4448C31.8214 8.85102 31.2325 7.74259 31.2325 7.42957C31.2325 6.38001 32.6416 5.73239 33.5837 6.34876ZM20.1896 7.3795C15.8557 8.27798 13.2833 12.3685 14.5886 16.286C15.5457 19.1592 18.1253 21.0525 21.3294 21.234C28.1987 21.6228 31.9317 13.846 27.0604 9.29525C25.2532 7.60723 22.6255 6.87449 20.1896 7.3795ZM24.2511 9.23707C25.5326 9.78507 26.5294 10.717 27.1441 11.9422C27.7871 13.2233 27.8261 15.2561 27.2308 16.4671C26.6611 17.6259 25.6306 18.604 24.3492 19.2022C22.1851 20.2124 19.3845 19.8129 17.6901 18.2525C16.3471 17.0158 15.9843 16.1523 15.9871 14.2015C15.9897 12.4008 16.252 11.7062 17.3849 10.5009C19.0346 8.7457 21.8781 8.22222 24.2511 9.23707ZM19.2191 10.5758C18.8992 10.8747 18.8494 11.1513 18.8494 12.635C18.8494 14.2811 18.8688 14.3633 19.3365 14.7069C19.7458 15.0078 20.0841 15.0648 21.4619 15.0648H23.1004V15.928V16.7913H21.7264C20.3783 16.7913 20.3515 16.7827 20.294 16.334C20.2188 15.7454 19.7111 15.4265 19.2653 15.6877C19.042 15.8186 18.9249 16.1465 18.8868 16.7468C18.8374 17.5227 18.887 17.6572 19.3462 17.9947C19.8198 18.3426 20.0293 18.3683 21.9594 18.3158C24.6608 18.2425 24.7638 18.1539 24.7638 15.9011C24.7638 14.4935 24.724 14.3213 24.31 13.9348C23.8918 13.5439 23.719 13.5109 22.0921 13.5109H20.328V12.6476V11.7844H21.7142C22.9383 11.7844 23.1004 11.8217 23.1004 12.1029C23.1004 12.4434 23.6434 12.993 23.9795 12.993C24.8238 12.993 25.0558 11.3509 24.31 10.6544C23.8809 10.2533 23.7417 10.2305 21.7225 10.2305C19.8351 10.2305 19.546 10.2704 19.2191 10.5758ZM16.6377 32.4193C17.8906 33.0246 18.1105 34.9074 17.0334 35.8066C16.276 36.4388 15.4592 36.5106 9.79315 36.4433C4.5248 36.3808 4.19045 36.3137 3.62656 35.2035C3.2157 34.395 3.24675 33.8699 3.74577 33.1781C4.46861 32.1762 4.55955 32.1627 10.5879 32.16C15.1532 32.1579 16.1882 32.2023 16.6377 32.4193ZM39.0012 32.4193C39.6917 32.7529 40.104 33.4975 40.104 34.4105C40.104 34.9913 39.9881 35.2353 39.4922 35.6985C38.6749 36.462 38.2256 36.5087 32.3415 36.4425C26.8436 36.3806 26.5591 36.3238 25.9729 35.1697C25.4533 34.147 25.9932 32.7268 27.0533 32.3266C27.2681 32.2456 29.9221 32.1743 32.9514 32.1683C37.5294 32.1593 38.5504 32.2016 39.0012 32.4193Z" fill="#F5D64E"/>
</svg>
