<svg width="45" height="49" viewBox="0 0 45 49" fill="none" xmlns="http://www.w3.org/2000/svg">
<path fill-rule="evenodd" clip-rule="evenodd" d="M27.1367 2.218C24.4967 4.75863 23.2425 6.04739 23.1787 6.28482C23.0869 6.62598 23.2021 6.97264 23.4897 7.22152C23.7676 7.46203 24.1325 7.55086 24.8427 7.55086H25.3287V12.0202C25.3287 14.4783 25.3124 16.4895 25.2924 16.4895C25.2726 16.4895 25.0146 16.4459 24.7192 16.3926C23.0388 16.0892 20.3457 16.1286 18.4778 16.4841C16.32 16.8948 13.8591 17.8895 12.0684 19.0747C10.8493 19.8817 8.91255 21.692 8.06329 22.8184C5.88441 25.7085 4.71142 29.4163 4.93685 32.7012L5.00464 33.6893L4.56915 33.9275C3.88649 34.3012 2.7796 35.3124 2.20781 36.0849C1.15327 37.5096 0.683374 38.9118 0.677293 40.6519C0.664531 44.3296 3.2807 47.4788 7.18323 48.4833C8.10068 48.7195 10.3561 48.7218 11.3206 48.4875C12.2932 48.2513 13.8946 47.5062 14.6331 46.9464L15.2538 46.476L15.7077 46.6577C15.9574 46.7576 16.5306 46.9428 16.9814 47.0693C22.5303 48.6253 28.619 47.378 32.9648 43.7949C35.2153 41.9396 36.9126 39.56 37.8371 36.9643C38.1852 35.9871 38.5891 34.3637 38.5891 33.9421C38.5891 33.7622 38.7422 33.6495 39.4614 33.2999C40.525 32.7829 41.4384 32.1018 42.1924 31.2634C43.0425 30.3182 43.9729 28.5348 43.9729 27.8508C43.9729 27.5207 43.5611 27.1663 43.1774 27.1663C42.7722 27.1663 42.5175 27.4068 42.3196 27.9765C41.7153 29.7155 40.3573 31.2081 38.6888 31.9674C37.3568 32.5736 36.5876 32.7251 35.1287 32.6688C33.1461 32.5921 31.7232 32.0286 30.3645 30.7821C28.9941 29.5249 28.3258 28.0993 28.2444 26.2597C28.205 25.3694 28.2333 25.0464 28.4073 24.3975C28.9464 22.3878 30.2957 20.823 32.258 19.9319C33.307 19.4555 34.2079 19.2691 35.4444 19.2726C37.4552 19.2784 39.0626 19.904 40.4862 21.2348C41.4717 22.1561 41.9769 22.964 42.3792 24.2622C42.6047 24.99 42.6797 25.1207 42.9596 25.2733C43.239 25.4257 43.321 25.4331 43.5891 25.3293C44.0495 25.1512 44.1795 24.783 44.0148 24.1234C43.8031 23.2756 43.4004 22.3631 42.9216 21.6457L42.4774 20.9801V17.4778V13.9755H43.1354C44.1066 13.9755 44.4837 13.7682 44.7106 13.109C44.7425 13.0166 44.7077 12.8071 44.6334 12.6435C44.559 12.4799 43.372 11.2499 41.9957 9.91002C39.3487 7.33344 39.2118 7.23502 38.6095 7.47609C38.4428 7.54285 37.183 8.69799 35.8099 10.0431C33.1143 12.6835 33.02 12.8124 33.3475 13.404C33.5778 13.8197 33.9726 13.9755 34.7954 13.9755H35.4983V15.8269V17.6781L34.7256 17.7455C34.3007 17.7827 33.6205 17.8924 33.2141 17.9893C32.8079 18.0862 32.4601 18.1655 32.4415 18.1655C32.4228 18.1655 32.4076 16.7922 32.4076 15.1136C32.4076 12.4659 32.3864 12.0334 32.2479 11.8488C32.0294 11.5574 31.6729 11.4437 31.3438 11.5606C30.8158 11.7481 30.8189 11.7267 30.8155 15.2558C30.8137 17.061 30.789 18.538 30.7605 18.538C30.732 18.538 30.5189 18.4258 30.2869 18.2886C29.7787 17.9882 28.2698 17.3282 27.5495 17.0912L27.0284 16.9199L27.0011 11.6792C26.974 6.47952 26.9721 6.43706 26.7623 6.24115C26.6313 6.1188 26.36 6.02039 26.0497 5.98249L25.5485 5.92141L27.2153 4.29857L28.8821 2.67564L29.9759 3.7399C30.5775 4.3252 31.3327 5.06599 31.6541 5.38602L32.2385 5.96796H31.8695C31.4441 5.96796 30.9643 6.17197 30.8742 6.39115C30.8402 6.47402 30.8123 7.1596 30.8123 7.91464C30.8123 9.2574 30.8178 9.29232 31.0608 9.50545C31.4084 9.81048 31.8741 9.79558 32.174 9.46997C32.3812 9.24502 32.4076 9.12276 32.4076 8.38364V7.55086L32.931 7.5503C34.0456 7.54927 34.601 7.2056 34.601 6.51732C34.601 6.24963 34.5203 6.07281 34.2777 5.80828C33.6178 5.08909 29.6648 1.26007 29.4205 1.10355C29.2812 1.01425 29.0102 0.939859 28.8183 0.938276C28.4994 0.935669 28.3543 1.04619 27.1367 2.218ZM42.2776 12.4159C42.2778 12.4543 42.0741 12.4858 41.8249 12.4858C41.4766 12.4858 41.315 12.5386 41.127 12.7143L40.8822 12.9428V16.2105V19.478L40.4394 19.1936C39.7875 18.7747 38.4967 18.2133 37.7535 18.0254L37.1025 17.8609L37.0731 15.3627C37.0392 12.4834 37.0661 12.567 36.1442 12.4867L35.5988 12.4392L37.2684 10.7819L38.938 9.12462L40.6076 10.7354C41.526 11.6212 42.2775 12.3776 42.2776 12.4159ZM19.3466 12.9594C14.8318 13.4997 10.5921 15.4423 7.37974 18.4424C3.7173 21.8627 1.51718 26.5529 1.38009 31.2324C1.35058 32.2371 1.35167 32.2423 1.63024 32.4661C1.99475 32.759 2.39745 32.7554 2.69805 32.4566C2.91031 32.2455 2.94132 32.1031 3.00961 31.0234C3.17372 28.4276 3.80912 26.2052 5.02189 23.985C8.07785 18.3905 14.1251 14.6984 20.7425 14.3868C22.0528 14.3251 22.3659 14.2428 22.5241 13.9183C22.6872 13.584 22.6638 13.3809 22.4301 13.1035C22.2277 12.8631 22.201 12.8585 21.1091 12.87C20.4962 12.8765 19.7031 12.9168 19.3466 12.9594ZM21.0416 24.9085C21.0416 28.8732 21.0673 32.1795 21.0987 32.256C21.1301 32.3324 23.6422 34.6469 26.6812 37.3994C31.0593 41.3646 32.1834 42.4298 32.0951 42.5292C31.8638 42.7895 30.1332 43.954 29.3667 44.3652C25.9282 46.2097 21.5663 46.6951 17.6198 45.6727C16.2804 45.3257 16.2857 45.3316 16.7242 44.6669C16.9229 44.3658 17.209 43.7859 17.3602 43.3781C17.6876 42.4952 17.6291 42.1709 17.0998 41.9351C16.7951 41.7994 16.7492 41.8016 16.4516 41.9655C16.2013 42.1032 16.0773 42.2823 15.8846 42.7844C15.0934 44.8457 13.2351 46.4417 10.9717 47.0038C10.1017 47.2199 8.3603 47.2148 7.49081 46.9936C5.66946 46.5301 3.95927 45.2765 3.11211 43.7835C2.58189 42.8495 2.38319 42.14 2.32536 40.9755C2.26165 39.6909 2.47182 38.7411 3.06654 37.6258C3.56715 36.6873 4.93445 35.3926 5.93676 34.9084C7.71683 34.0481 9.74057 33.8999 11.5739 34.4953C12.6239 34.8364 13.3192 35.2562 14.2212 36.0939C14.8644 36.6913 15.1204 37.0156 15.4839 37.6937C15.7346 38.1615 15.992 38.779 16.0558 39.066C16.2041 39.7335 16.5097 40.0777 16.9538 40.0777C17.1936 40.0777 17.3515 40.0049 17.5284 39.8129C17.7393 39.5839 17.7639 39.4883 17.7098 39.1076C17.63 38.5457 17.3443 37.7709 16.9468 37.038C15.0662 33.5714 10.8819 31.881 6.79509 32.9372L6.5568 32.9988L6.61453 31.3783C6.67554 29.6681 6.82749 28.829 7.33138 27.4218C8.63229 23.7881 11.6711 20.6197 15.4084 19.0001C16.9014 18.3532 19.4267 17.7325 20.6677 17.7075L21.0416 17.7V24.9085ZM24.9487 17.9864C26.0937 18.2002 27.3689 18.6026 28.4693 19.0973C29.7422 19.6697 29.7123 19.6113 29.061 20.2545C27.4202 21.875 26.5975 23.7906 26.5992 25.9869C26.6014 28.7697 27.9718 31.1936 30.4512 32.7999C32.0634 33.8444 34.5167 34.4352 36.271 34.2015C36.874 34.1211 36.8941 34.125 36.8941 34.3238C36.8941 34.7167 36.4057 36.3241 35.9974 37.2746C35.4877 38.461 34.8718 39.4784 34.0246 40.5326L33.3723 41.3443L32.6656 40.7233C32.2769 40.3819 29.8614 38.1979 27.2978 35.87L22.6368 31.6376V24.658V17.6783L23.3098 17.7422C23.6799 17.7774 24.4175 17.8872 24.9487 17.9864ZM32.0711 21.4681C31.5592 21.6385 31.0525 22.11 30.8505 22.6038C30.3484 23.8318 31.3348 25.1489 32.7565 25.1489C34.6253 25.1489 35.493 23.0277 34.1037 21.8555C33.5101 21.3547 32.8117 21.2216 32.0711 21.4681ZM36.9736 21.5124C36.6956 21.7166 32.607 29.571 32.607 29.9008C32.607 30.1285 33.1166 30.6425 33.3424 30.6425C33.8047 30.6425 34.0266 30.4087 34.5756 29.3433C38.4301 21.8627 38.293 22.1555 38.1283 21.7545C38.0613 21.5915 37.5897 21.3313 37.3612 21.3313C37.2836 21.3313 37.1092 21.4128 36.9736 21.5124ZM33.1686 23.1458C33.2535 23.3524 33.017 23.6591 32.773 23.6591C32.3075 23.6591 32.1466 23.2165 32.5227 22.9705C32.7547 22.8187 33.0693 22.9041 33.1686 23.1458ZM37.1056 27.0269C36.5825 27.2687 36.1345 27.8748 36.0389 28.4704C35.923 29.192 36.3837 30.0249 37.0827 30.3579C37.936 30.7645 38.7245 30.6778 39.4076 30.102C39.9053 29.6826 40.0846 29.3075 40.0846 28.6855C40.0846 27.271 38.4937 26.3852 37.1056 27.0269ZM38.3886 28.4531C38.4591 28.5326 38.4848 28.6914 38.4488 28.8256C38.3994 29.0093 38.3227 29.0596 38.0921 29.0596C37.7449 29.0596 37.5768 28.8298 37.7003 28.5242C37.7992 28.2797 38.1978 28.2385 38.3886 28.4531ZM8.6959 35.6997C8.52581 35.8688 8.47915 36.0292 8.47915 36.4446C8.47915 36.972 8.47805 36.974 8.17685 36.974C7.48472 36.974 6.66617 37.5096 6.2557 38.231C5.92938 38.8046 5.9542 39.6833 6.31283 40.253C6.88233 41.1578 7.60915 41.4434 9.34246 41.4434C10.6439 41.4434 10.872 41.5475 10.872 42.1417C10.872 42.3435 10.796 42.5386 10.6726 42.6538C10.4883 42.8259 10.3403 42.84 8.72342 42.84C6.55072 42.84 6.28571 42.9302 6.28571 43.6694C6.28571 44.1389 6.62789 44.318 7.58353 44.349L8.4293 44.3764L8.45632 44.8419C8.48922 45.4079 8.62262 45.6728 8.94346 45.8094C9.31445 45.9672 9.4658 45.9367 9.78295 45.6406C10.0354 45.4048 10.0744 45.2989 10.0744 44.8491C10.0744 44.333 10.0762 44.3298 10.3767 44.3298C11.0706 44.3298 11.8936 43.7901 12.2935 43.0728C12.7351 42.2805 12.508 41.216 11.7532 40.5403C11.2043 40.0489 10.7701 39.9312 9.32661 39.8821C8.61375 39.8579 7.96977 39.7924 7.8955 39.7367C7.66907 39.5668 7.57874 39.2285 7.68792 38.9602C7.87715 38.4955 7.9945 38.47 9.95423 38.4668C11.756 38.4638 11.7814 38.461 12.023 38.2352C12.1774 38.0912 12.2678 37.9003 12.2678 37.7189C12.2678 37.5375 12.1774 37.3467 12.023 37.2026C11.8014 36.9955 11.698 36.974 10.9263 36.974H10.0744V36.4745C10.0744 35.8079 9.81695 35.4843 9.28693 35.4843C9.02472 35.4843 8.84785 35.5488 8.6959 35.6997Z" fill="#F5D64E"/>
</svg>
